<svg width="50" height="40" viewBox="0 0 50 40" fill="none" xmlns="http://www.w3.org/2000/svg">
<path d="M15 20C19.8359 20 23.75 16.0859 23.75 11.25C23.75 6.41406 19.8359 2.5 15 2.5C10.1641 2.5 6.25 6.41406 6.25 11.25C6.25 16.0859 10.1641 20 15 20ZM21 22.5H20.3516C18.7266 23.2812 16.9219 23.75 15 23.75C13.0781 23.75 11.2812 23.2812 9.64844 22.5H9C4.03125 22.5 0 26.5313 0 31.5V33.75C0 35.8203 1.67969 37.5 3.75 37.5H26.25C28.3203 37.5 30 35.8203 30 33.75V31.5C30 26.5313 25.9687 22.5 21 22.5ZM37.5 20C41.6406 20 45 16.6406 45 12.5C45 8.35938 41.6406 5 37.5 5C33.3594 5 30 8.35938 30 12.5C30 16.6406 33.3594 20 37.5 20ZM41.25 22.5H40.9531C39.8672 22.875 38.7188 23.125 37.5 23.125C36.2812 23.125 35.1328 22.875 34.0469 22.5H33.75C32.1562 22.5 30.6875 22.9609 29.3984 23.7031C31.3047 25.7578 32.5 28.4844 32.5 31.5V34.5C32.5 34.6719 32.4609 34.8359 32.4531 35H46.25C48.3203 35 50 33.3203 50 31.25C50 26.4141 46.0859 22.5 41.25 22.5Z" fill="#C7C7C7"/>
</svg>
