<svg width="50" height="50" viewBox="0 0 50 50" fill="none" xmlns="http://www.w3.org/2000/svg">
<path d="M8.33337 39.5833V20.8333C8.33337 20.1736 8.48129 19.5486 8.77712 18.9583C9.07296 18.368 9.4806 17.8819 10 17.5L22.5 8.12499C23.2292 7.56943 24.0625 7.29166 25 7.29166C25.9375 7.29166 26.7709 7.56943 27.5 8.12499L40 17.5C40.5209 17.8819 40.9292 18.368 41.225 18.9583C41.5209 19.5486 41.6681 20.1736 41.6667 20.8333V39.5833C41.6667 40.7292 41.2584 41.7104 40.4417 42.5271C39.625 43.3437 38.6445 43.7514 37.5 43.75H31.25C30.6598 43.75 30.1653 43.55 29.7667 43.15C29.3681 42.75 29.1681 42.2555 29.1667 41.6667V31.25C29.1667 30.6597 28.9667 30.1653 28.5667 29.7667C28.1667 29.368 27.6723 29.168 27.0834 29.1667H22.9167C22.3264 29.1667 21.832 29.3667 21.4334 29.7667C21.0348 30.1667 20.8348 30.6611 20.8334 31.25V41.6667C20.8334 42.2569 20.6334 42.7521 20.2334 43.1521C19.8334 43.5521 19.3389 43.7514 18.75 43.75H12.5C11.3542 43.75 10.3737 43.3424 9.55837 42.5271C8.7431 41.7118 8.33476 40.7305 8.33337 39.5833Z" fill="#C7C7C7"/>
</svg>
