<svg width="50" height="50" viewBox="0 0 50 50" fill="none" xmlns="http://www.w3.org/2000/svg">
<path d="M15.625 3.125C16.0394 3.125 16.4368 3.28962 16.7299 3.58265C17.0229 3.87567 17.1875 4.2731 17.1875 4.6875V6.25H23.4375V4.6875C23.4375 4.2731 23.6021 3.87567 23.8951 3.58265C24.1882 3.28962 24.5856 3.125 25 3.125C25.4144 3.125 25.8118 3.28962 26.1049 3.58265C26.3979 3.87567 26.5625 4.2731 26.5625 4.6875V6.25H32.8125V4.6875C32.8125 4.2731 32.9771 3.87567 33.2701 3.58265C33.5632 3.28962 33.9606 3.125 34.375 3.125C34.7894 3.125 35.1868 3.28962 35.4799 3.58265C35.7729 3.87567 35.9375 4.2731 35.9375 4.6875V6.25C37.1807 6.25 38.373 6.74386 39.2521 7.62294C40.1311 8.50201 40.625 9.6943 40.625 10.9375V18.8625C39.0023 19.1439 37.5066 19.9212 36.3438 21.0875L32.1531 25.2812C31.8884 25.0964 31.5729 24.9982 31.25 25H18.75C18.3356 25 17.9382 25.1646 17.6451 25.4576C17.3521 25.7507 17.1875 26.1481 17.1875 26.5625C17.1875 26.9769 17.3521 27.3743 17.6451 27.6674C17.9382 27.9604 18.3356 28.125 18.75 28.125H29.3094L22.9438 34.4875C22.5542 34.8792 22.1937 35.2958 21.8625 35.7375C21.8139 35.3608 21.6297 35.0147 21.3444 34.7639C21.0592 34.5132 20.6923 34.3749 20.3125 34.375H18.75C18.3356 34.375 17.9382 34.5396 17.6451 34.8326C17.3521 35.1257 17.1875 35.5231 17.1875 35.9375C17.1875 36.3519 17.3521 36.7493 17.6451 37.0424C17.9382 37.3354 18.3356 37.5 18.75 37.5H20.3125C20.4792 37.5003 20.6448 37.4739 20.8031 37.4219C20.3855 38.2321 20.0625 39.0878 19.8406 39.9719L18.8938 43.7562C18.6314 44.7925 18.7081 45.8855 19.1125 46.875H14.0625C12.8193 46.875 11.627 46.3811 10.7479 45.5021C9.86886 44.623 9.375 43.4307 9.375 42.1875V10.9375C9.375 9.6943 9.86886 8.50201 10.7479 7.62294C11.627 6.74386 12.8193 6.25 14.0625 6.25V4.6875C14.0625 4.2731 14.2271 3.87567 14.5201 3.58265C14.8132 3.28962 15.2106 3.125 15.625 3.125ZM17.1875 17.1875C17.1875 17.6019 17.3521 17.9993 17.6451 18.2924C17.9382 18.5854 18.3356 18.75 18.75 18.75H31.25C31.6644 18.75 32.0618 18.5854 32.3549 18.2924C32.6479 17.9993 32.8125 17.6019 32.8125 17.1875C32.8125 16.7731 32.6479 16.3757 32.3549 16.0826C32.0618 15.7896 31.6644 15.625 31.25 15.625H18.75C18.3356 15.625 17.9382 15.7896 17.6451 16.0826C17.3521 16.3757 17.1875 16.7731 17.1875 17.1875ZM38.5563 23.2969C39.4708 22.3823 40.7113 21.8685 42.0047 21.8685C43.2981 21.8685 44.5385 22.3823 45.4531 23.2969C46.3677 24.2115 46.8815 25.4519 46.8815 26.7453C46.8815 28.0387 46.3677 29.2792 45.4531 30.1937L32.05 43.5938C30.9359 44.7036 29.5434 45.4928 28.0187 45.8781L24.2344 46.825C23.9149 46.9051 23.5801 46.901 23.2626 46.8132C22.9452 46.7254 22.6559 46.5568 22.423 46.3239C22.1901 46.091 22.0215 45.8017 21.9337 45.4842C21.8459 45.1668 21.8418 44.832 21.9219 44.5125L22.8719 40.7313C23.2531 39.2031 24.0406 37.8094 25.1531 36.7L38.5563 23.2969Z" fill="#C7C7C7"/>
</svg>
